# xmcd
#
# Track frame offsets:
#	150
#	16685
#	38430
#	59090
#	75720
#	85792
#	98417
#	121842
#	139035
#	156762
#
# Disc length: 2319 seconds
# Revision: 0
# Processed by: cddbd v1.5.2PL0 Copyright (c) Steve Scherf et al.
# Submitted via: dBpowerAMP V12.0
#
DISCID=69090d0a
DTITLE=Memphis Slim - Steady Rollin' Blues: The Blues of Memphis Slim
DYEAR=1961
DGENRE=
TTITLE0=Mean Mistreatin' Mama
TTITLE1=Soon One Morning
TTITLE2=Steady Rolling Blues
TTITLE3=Celeste's Boogie
TTITLE4=Big Legged Woman
TTITLE5=Rock Me Baby
TTITLE6=Goin' Down Slow
TTITLE7=Sweet Root Man
TTITLE8=Mr. Freddie Boogie
TTITLE9=Three Women Blues
EXTD=
EXTT0=
EXTT1=
EXTT2=
EXTT3=
EXTT4=
EXTT5=
EXTT6=
EXTT7=
EXTT8=
EXTT9=
PLAYORDER=
